<svg xmlns="http://www.w3.org/2000/svg" viewBox="0 0 512 512">
  <!-- Background Circle -->
  <circle cx="256" cy="256" r="256" fill="#2E7D32"/>

  <!-- Book Base -->
  <path d="M128 120 L256 160 L384 120 L384 380 L256 420 L128 380 Z" fill="#FFFEF5" stroke="#1B5E20" stroke-width="8"/>

  <!-- Book Spine -->
  <line x1="256" y1="160" x2="256" y2="420" stroke="#1B5E20" stroke-width="4"/>

  <!-- Left Page Lines -->
  <line x1="160" y1="200" x2="230" y2="215" stroke="#81C784" stroke-width="6" stroke-linecap="round"/>
  <line x1="160" y1="240" x2="230" y2="255" stroke="#81C784" stroke-width="6" stroke-linecap="round"/>
  <line x1="160" y1="280" x2="230" y2="295" stroke="#81C784" stroke-width="6" stroke-linecap="round"/>

  <!-- Right Page Lines -->
  <line x1="282" y1="215" x2="352" y2="200" stroke="#81C784" stroke-width="6" stroke-linecap="round"/>
  <line x1="282" y1="255" x2="352" y2="240" stroke="#81C784" stroke-width="6" stroke-linecap="round"/>
  <line x1="282" y1="295" x2="352" y2="280" stroke="#81C784" stroke-width="6" stroke-linecap="round"/>

  <!-- Sprout/Growth Symbol -->
  <ellipse cx="256" cy="340" rx="30" ry="20" fill="#4CAF50"/>
  <path d="M256 340 Q256 300 230 270" fill="none" stroke="#4CAF50" stroke-width="8" stroke-linecap="round"/>
  <path d="M256 340 Q256 300 282 270" fill="none" stroke="#4CAF50" stroke-width="8" stroke-linecap="round"/>
  <circle cx="230" cy="265" r="12" fill="#81C784"/>
  <circle cx="282" cy="265" r="12" fill="#81C784"/>
</svg>
